<svg width="260" height="260" viewBox="0 0 256 256" opacity="0.35" xmlns="http://www.w3.org/2000/svg">
<path fill="rgb(52,90,79)" stroke="rgb(52,90,79)" stroke-width="0" opacity="0.8666666666666667" d="M 162.5 40 Q 165.1 39.2 164 42.5 L 167 43.5 L 166.5 45 L 165.5 43 L 163 42.5 L 162.5 40 Z " /><path fill="rgb(52,90,79)" stroke="rgb(52,90,79)" stroke-width="0" opacity="0.8666666666666667" d="M 147.5 46 L 149 48.5 L 147.5 54 L 147.5 46 Z " /><path fill="rgb(52,90,79)" stroke="rgb(52,90,79)" stroke-width="0" opacity="0.8666666666666667" d="M 181.5 60 L 182.5 62 L 178.5 64 L 178 62.5 L 181.5 60 Z " /><path fill="rgb(52,90,79)" stroke="rgb(52,90,79)" stroke-width="0" opacity="0.8666666666666667" d="M 66.5 64 L 68 64.5 L 54.5 72 L 55.5 70 L 66.5 64 Z " /><path fill="rgb(52,90,79)" stroke="rgb(52,90,79)" stroke-width="0" opacity="0.8666666666666667" d="M 193.5 65 L 194 67 L 197.5 69 L 199 68.5 L 197.5 70 L 193 68 L 193.5 65 Z " /><path fill="rgb(52,90,79)" stroke="rgb(52,90,79)" stroke-width="0" opacity="0.8666666666666667" d="M 205.5 73 L 210 75.5 L 208.5 76 L 205.5 73 Z " /><path fill="rgb(52,90,79)" stroke="rgb(52,90,79)" stroke-width="0" opacity="0.8666666666666667" d="M 231.5 89 L 232 100.5 L 231 100.5 L 231.5 89 Z " /><path fill="rgb(52,90,79)" stroke="rgb(52,90,79)" stroke-width="0" opacity="0.8666666666666667" d="M 184.5 100 L 187.5 104 L 184.5 100 Z " /><path fill="rgb(52,90,79)" stroke="rgb(52,90,79)" stroke-width="0" opacity="0.8666666666666667" d="M 218.5 101 Q 221.5 102.6 220 108 L 218 106.5 L 219 103.5 L 218.5 101 Z " /><path fill="rgb(52,90,79)" stroke="rgb(52,90,79)" stroke-width="0" opacity="0.8666666666666667" d="M 206.5 109 L 212 113.5 L 210.5 114 L 206.5 109 Z " /><path fill="rgb(52,90,79)" stroke="rgb(52,90,79)" stroke-width="0" opacity="0.8666666666666667" d="M 218 112 L 220 112.5 L 218.5 130 L 218 112 Z " /><path fill="rgb(52,90,79)" stroke="rgb(52,90,79)" stroke-width="0" opacity="0.8666666666666667" d="M 36.5 131 L 38 144.5 L 37.5 147 L 36 145.5 L 36.5 131 Z " /><path fill="rgb(52,90,79)" stroke="rgb(52,90,79)" stroke-width="0" opacity="0.8666666666666667" d="M 65.5 131 L 73.5 140 L 65.5 131 Z " /><path fill="rgb(52,90,79)" stroke="rgb(52,90,79)" stroke-width="0" opacity="0.8666666666666667" d="M 160.5 147 L 159.5 149 L 156.5 150 L 156.5 149 L 160.5 147 Z " /><path fill="rgb(52,90,79)" stroke="rgb(52,90,79)" stroke-width="0" opacity="0.8666666666666667" d="M 218.5 180 L 219 181.5 L 215.5 184 L 215.5 183 L 218 181.5 L 218.5 180 Z " /><path fill="rgb(52,90,79)" stroke="rgb(52,90,79)" stroke-width="0" opacity="0.8666666666666667" d="M 37.5 181 L 40.5 185 L 37.5 181 Z " /><path fill="rgb(59,88,85)" stroke="rgb(59,88,85)" stroke-width="0" opacity="0.9921568627450981" d="M 124.5 5 Q 136.9 6 144 12.5 L 142 16 L 147 17 L 147.5 14 L 155 19.5 L 154 22 L 157.5 21 L 162 23.5 L 161 25.5 L 164 27 L 164.5 25 L 168 26.5 L 167.5 28 L 172 29.5 L 171 31.5 L 176 34 L 176.5 32 L 179 33.5 L 178 35.5 L 181 37 L 181.5 35 L 184.5 40 L 187.5 41 L 189 40.5 L 189.5 43 L 199 47 L 199 49 Q 202.8 47.5 202 50.5 L 204 50.5 L 206.5 54 Q 209.5 53.1 208 57.5 L 210 62.5 L 209 64.5 L 209.5 66 L 162.5 40 L 160.5 40 L 159 39.5 L 158.5 37 L 135.5 23 Q 132.8 20.2 126.5 21 L 98 37.5 L 96.5 40 L 94.5 39 L 94 41 L 90.5 41 L 82 46.5 Q 82.9 49.5 78.5 48 L 71 52.5 Q 71.8 55.1 68.5 54 L 65 56.5 L 65.5 58 L 63.5 57 L 52.5 63 L 51 60.5 L 54 49 Q 57.8 50.5 57 47.5 L 59 47.5 L 60.5 45 L 62.5 44 L 64 44.5 L 65.5 43 L 82.5 32 L 85 32 L 84 29.5 L 87 28 L 88.5 30 L 91.5 25 L 92 27 L 95 25.5 L 96.5 22 L 97 24 L 100 22.5 L 101.5 18 L 112 14 L 113.5 12 L 115.5 11 L 114.5 14 L 119 13 Q 120.5 9.2 117.5 10 L 118.5 8 L 124.5 5 Z M 106 17 L 103 21 L 107 20 Q 108 16 106 17 Z M 95 28 L 95 30 L 70 45 L 69 47 L 95 33 Q 102 35 100 29 L 95 28 Z M 158 28 L 156 33 Q 167 33 174 40 L 175 40 L 162 29 L 158 28 Z " /><path fill="rgb(59,88,85)" stroke="rgb(59,88,85)" stroke-width="0" opacity="0.9921568627450981" d="M 123.5 29 L 126.5 30 L 128.5 29 L 131.5 30 L 133 29.5 L 134.5 33 L 144.5 38 L 144.5 36 L 148 38.5 L 148.5 41 L 151.5 42 L 151.5 40 L 188 62.5 L 186.5 62 L 181.5 60 L 178 62.5 L 179 64.5 L 176 65.5 L 178.5 69 L 186 71 L 183.5 76 L 184 74.5 L 185 72.5 L 183.5 72 L 180 73 Q 181.5 69.3 178.5 70 L 174 66.5 L 173.5 65 L 171.5 67 L 158.5 67 L 150 72 L 150 75 Q 146.3 73.5 147 76.5 L 145.5 76 L 139.5 74 L 138 74.5 L 139 69.5 L 138 67.5 L 139 59.5 L 136 58 L 134.5 55 L 131.5 53 L 126.5 51 L 118 57.5 L 117 61.5 L 117 63.5 L 118 65.5 L 117 73.5 L 117.5 75 L 109.5 77 L 104.5 75 L 102.5 76 L 101 72 Q 95.9 72.8 94.5 68 Q 93 70.5 91.5 67 Q 87.8 66 89 69 L 85.5 69 L 81.5 71 L 76 68.5 L 73 65.5 L 71.5 66 L 66.5 64 L 47.5 75 L 47 73 L 116.5 33 L 116.5 35 L 121 32.5 L 119.5 32 L 118 32.5 L 123.5 29 Z M 128 33 L 127 42 L 128 42 L 128 33 Z M 119 38 L 118 49 L 119 49 L 119 38 Z M 148 46 L 147 60 L 145 66 L 150 67 L 151 65 L 149 62 L 149 48 L 148 46 Z M 117 49 L 113 53 L 114 54 L 116 53 L 118 50 L 117 49 Z " /><path fill="rgb(59,88,85)" stroke="rgb(59,88,85)" stroke-width="0" opacity="0.9921568627450981" d="M 42.5 55 L 44 55.5 L 28.5 66 L 32.5 61 L 42.5 55 Z " /><path fill="rgb(59,88,85)" stroke="rgb(59,88,85)" stroke-width="0" opacity="0.9921568627450981" d="M 215.5 57 L 220 58 L 219.5 61 L 215.5 57 Z " /><path fill="rgb(59,88,85)" stroke="rgb(59,88,85)" stroke-width="0" opacity="0.9921568627450981" d="M 199.5 69 L 205 72.5 L 203.5 73 L 199 71 L 199.5 69 Z " /><path fill="rgb(59,88,85)" stroke="rgb(59,88,85)" stroke-width="0" opacity="0.9921568627450981" d="M 52.5 102 L 55 102.5 L 53.5 107 L 52.5 102 Z " /><path fill="rgb(59,88,85)" stroke="rgb(59,88,85)" stroke-width="0" opacity="0.9921568627450981" d="M 203.5 106 L 204 108 L 206 109.5 L 209.5 114 L 203 107.5 L 203.5 106 Z " /><path fill="rgb(59,88,85)" stroke="rgb(59,88,85)" stroke-width="0" opacity="0.9921568627450981" d="M 203.5 119 L 211.5 120 L 213 121.5 L 207.5 122 L 203.5 119 Z " /><path fill="rgb(59,88,85)" stroke="rgb(59,88,85)" stroke-width="0" opacity="0.9921568627450981" d="M 226.5 121 L 227 141.5 L 226 141.5 L 226.5 121 Z " /><path fill="rgb(59,88,85)" stroke="rgb(59,88,85)" stroke-width="0" opacity="0.9921568627450981" d="M 41.5 184 L 64 196 L 63.5 198 L 43.5 187 L 41.5 184 Z " /><path fill="rgb(59,88,85)" stroke="rgb(59,88,85)" stroke-width="0" opacity="0.9921568627450981" d="M 214.5 184 L 216 184.5 L 203.5 191 L 204.5 189 L 214.5 184 Z " /><path fill="rgb(59,88,85)" stroke="rgb(59,88,85)" stroke-width="0" opacity="0.9921568627450981" d="M 102.5 220 L 124.5 232 L 131.5 232 L 150.5 221 L 149.5 223 L 131.5 234 L 124.5 234 L 102.5 220 Z " /><path fill="rgb(62,70,67)" stroke="rgb(62,70,67)" stroke-width="0" opacity="0.08235294117647059" d="M 47.5 4 L 79.5 5 L 80.5 4 L 149.5 4 L 151.5 4 L 204.5 4 L 205 5.5 L 204 18.5 L 212 39.5 L 225 59 L 220 56.5 Q 220.9 53.5 216.5 55 L 210 51 L 208.5 49 L 189.5 37 L 173 30 L 171.5 27 L 158.5 21 L 134.5 6 L 123.5 5 L 108 13 L 108 15 L 105 15 L 103.5 17 L 87 25.5 L 85.5 28 L 83.5 28 L 52 45.5 L 50.5 48 L 31.5 58 L 22.5 66 L 28 59.5 L 32.5 53 L 34 51.5 L 44.5 37 L 46 36.5 Q 43.5 35 47 33.5 L 49 27.5 L 49 25.5 L 51 18.5 L 50 16.5 L 51 14.5 L 47 8.5 L 48 5.5 L 47.5 4 Z " /><path fill="rgb(62,70,67)" stroke="rgb(62,70,67)" stroke-width="0" opacity="0.08235294117647059" d="M 20.5 76 L 21 112.5 L 20 112.5 L 20.5 76 Z " /><path fill="rgb(62,70,67)" stroke="rgb(62,70,67)" stroke-width="0" opacity="0.08235294117647059" d="M 73.5 93 L 76.5 97 L 73.5 93 Z " /><path fill="rgb(62,70,67)" stroke="rgb(62,70,67)" stroke-width="0" opacity="0.08235294117647059" d="M 29.5 126 L 30 134.5 L 29 134.5 L 29.5 126 Z " /><path fill="rgb(62,70,67)" stroke="rgb(62,70,67)" stroke-width="0" opacity="0.08235294117647059" d="M 191.5 128 L 193 128.5 L 187 133.5 L 191.5 128 Z " /><path fill="rgb(62,70,67)" stroke="rgb(62,70,67)" stroke-width="0" opacity="0.08235294117647059" d="M 76.5 133 L 79.5 137 L 78 135.5 L 76.5 133 Z " /><path fill="rgb(62,70,67)" stroke="rgb(62,70,67)" stroke-width="0" opacity="0.08235294117647059" d="M 81 138 L 84 139.5 L 85 141.5 L 82.5 140 L 81 138 Z " /><path fill="rgb(0,0,0)" stroke="rgb(0,0,0)" stroke-width="0" opacity="0.00392156862745098" d="M 19 4 L 46.5 4 L 47 5.5 L 47 7.5 L 51 14.5 L 50 18.5 L 51 20.5 L 48 27.5 L 48 29.5 L 37 49 L 33 51.5 L 25.5 62 L 22 64.5 L 21 70.5 L 22 73.5 L 20.5 76 L 19 74.5 L 19 4 Z " /><path fill="rgb(0,0,0)" stroke="rgb(0,0,0)" stroke-width="0" opacity="0.00392156862745098" d="M 205 4 L 245.5 4 L 246 4.5 L 246 252 L 135 251.5 Q 137 247.8 139 249.5 L 140.5 248 L 154.5 239 L 159 238 L 160.5 236 L 164 235 L 165.5 233 L 169 232 L 169.5 230 L 171 230.5 L 172.5 229 L 189.5 218 L 194 217 L 195.5 215 L 199 214 L 200.5 212 L 204 211 L 205.5 209 L 209 208 L 210.5 206 L 214 205 L 215.5 203 L 231 194 Q 229.5 190.3 232.5 191 L 232.5 189 L 234 188.5 L 233.5 187 L 235 186.5 L 234.5 185 L 236 184.5 L 235 183.5 L 235 137.5 L 236 128.5 L 235 126.5 L 235 124.5 L 236 119.5 L 236 117.5 L 235 111.5 L 236 105 Q 239 106.3 238 102.5 L 236 97.5 L 237 87.5 L 236 84.5 L 234 73.5 L 235 73.5 L 235.5 75 L 236 72.5 L 234 69.5 L 235 67.5 L 233.5 65 L 231 64.5 L 232 63.5 L 228.5 60 L 227.5 62 L 209 32.5 L 210 30.5 L 204 17.5 L 204 7.5 L 205 4 Z " /><path fill="rgb(0,0,0)" stroke="rgb(0,0,0)" stroke-width="0" opacity="0.00392156862745098" d="M 20.5 114 L 21 159.5 L 20 168.5 L 21 172.5 L 19.5 179 L 19 118.5 L 20 116.5 L 20.5 114 Z " /><path fill="rgb(0,0,0)" stroke="rgb(0,0,0)" stroke-width="0" opacity="0.00392156862745098" d="M 178.5 122 L 183 125.5 L 180.5 124 L 178.5 122 Z " /><path fill="rgb(0,0,0)" stroke="rgb(0,0,0)" stroke-width="0" opacity="0.00392156862745098" d="M 182.5 142 L 179.5 146 L 182.5 142 Z " /><path fill="rgb(0,0,0)" stroke="rgb(0,0,0)" stroke-width="0" opacity="0.00392156862745098" d="M 19.5 181 L 21 184.5 L 21.5 189 L 23 190.5 L 28 194 L 29.5 197 L 31 196.5 L 32.5 199 L 34 198.5 L 34.5 200 L 37 200.5 L 37.5 202 L 39 201.5 L 38.5 203 L 40.5 204 L 42 203.5 Q 41.2 206.1 44.5 205 Q 77.7 227.8 115 246.5 L 114.5 248 Q 117.8 246.9 117 249.5 L 120.5 251 L 122 250.5 L 120.5 252 L 19 252 L 19.5 181 Z " /><path fill="rgb(0,0,0)" stroke="rgb(0,0,0)" stroke-width="0" opacity="0.00392156862745098" d="M 91.5 220 L 93.5 223 L 95 222.5 L 92.5 223 Q 89.4 223.7 91.5 220 Z " /><path fill="rgb(99,220,159)" stroke="rgb(99,220,159)" stroke-width="0" opacity="0.9725490196078431" d="M 125.5 53 Q 134.1 51.9 136 57.5 L 137 64.5 L 133 70 L 130 71.5 L 130 80 L 133.5 80 L 147.5 82 L 155.5 85 L 162.5 69 L 166 70 L 161 86.5 L 179.5 97 L 189.5 86 L 193 88.5 L 184 100.5 L 187 103.5 Q 181.8 106.3 185.5 109 L 173 101 L 171.5 99 L 168 98 L 166.5 96 Q 150.4 83.1 119.5 85 Q 89.6 89.6 72.5 107 L 74 104.5 L 75 102.5 L 72.5 101 L 71 101.5 L 72 99.5 L 64 89.5 L 64 87 L 66.5 86 L 76.5 97 L 95 86.5 L 90 70 L 93.5 69 L 100.5 84 L 122.5 81 L 126 78.5 Q 127.3 71.3 123.5 69 L 120 66.5 L 119 59.5 L 123 54 L 125.5 53 Z M 126 58 Q 123 59 124 65 Q 126 68 131 66 L 132 62 Q 131 57 126 58 Z " /><path fill="rgb(99,220,159)" stroke="rgb(99,220,159)" stroke-width="0" opacity="0.9725490196078431" d="M 119.5 95 L 136.5 95 L 157.5 101 Q 171.3 106.7 181 116.5 L 178.5 115 L 176.5 114 L 175.5 118 Q 166.4 109.6 153.5 105 L 153 106.5 L 160 119.5 L 161 128.5 L 160 128.5 L 160 127 L 155 127 L 155 120.5 L 145.5 105 Q 138.6 99.9 126.5 100 Q 112.4 101.4 106 110.5 L 98.5 126 L 96 124.5 L 95.5 127 L 95 123.5 Q 96.7 111.2 105 105.5 L 101.5 105 L 84.5 114 L 82 110.5 Q 96.5 98.5 119.5 95 Z " /><path fill="rgb(99,220,159)" stroke="rgb(99,220,159)" stroke-width="0" opacity="0.9725490196078431" d="M 126.5 106 Q 137.7 106.3 144 111.5 L 143 115 Q 137.4 117.2 139 111.5 L 136.5 109 L 127.5 107 L 122.5 108 L 122.5 107 L 126.5 106 Z " /><path fill="rgb(99,220,159)" stroke="rgb(99,220,159)" stroke-width="0" opacity="0.9725490196078431" d="M 119.5 108 L 121 108.5 L 112.5 114 L 114 111.5 L 115.5 110 L 119.5 108 Z " /><path fill="rgb(99,220,159)" stroke="rgb(99,220,159)" stroke-width="0" opacity="0.9725490196078431" d="M 78.5 113 L 79 115 L 69.5 123 L 72 119.5 L 74.5 116 L 78.5 113 Z " /><path fill="rgb(99,220,159)" stroke="rgb(99,220,159)" stroke-width="0" opacity="0.9725490196078431" d="M 126.5 113 Q 136.6 112.9 140 119.5 Q 143.5 123.5 142 132.5 L 140 133.5 L 138 131.5 L 138 126.5 L 135.5 126 L 130 123.5 L 131 119 L 128.5 118 L 122 120 Q 118 122.8 118.5 131 L 118 129 Q 113.9 127.3 115 131.5 L 114 131.5 L 113 126.5 L 120.5 115 L 126.5 113 Z " /><path fill="rgb(99,220,159)" stroke="rgb(99,220,159)" stroke-width="0" opacity="0.9725490196078431" d="M 109.5 118 L 110 119.5 L 106.5 127 L 106 124.5 L 109.5 118 Z " /><path fill="rgb(99,220,159)" stroke="rgb(99,220,159)" stroke-width="0" opacity="0.9725490196078431" d="M 186.5 121 L 191.5 127 L 186.5 121 Z " /><path fill="rgb(99,220,159)" stroke="rgb(99,220,159)" stroke-width="0" opacity="0.9725490196078431" d="M 148 127 Q 151 125.8 150 129.5 L 147.5 135 L 147 133.5 L 148 127 Z " /><path fill="rgb(99,220,159)" stroke="rgb(99,220,159)" stroke-width="0" opacity="0.9725490196078431" d="M 185.5 128 L 182.5 132 L 183 130.5 L 184.5 129 L 185.5 128 Z " /><path fill="rgb(99,220,159)" stroke="rgb(99,220,159)" stroke-width="0" opacity="0.9725490196078431" d="M 132.5 136 L 134 136.5 L 126.5 138 L 126.5 137 L 132.5 136 Z " /><path fill="rgb(28,47,48)" stroke="rgb(28,47,48)" stroke-width="0" opacity="0.9921568627450981" d="M 106.5 33 L 104.5 36 L 100.5 38 L 101 36.5 Q 100.2 33.9 103.5 35 L 106.5 33 Z " /><path fill="rgb(28,47,48)" stroke="rgb(28,47,48)" stroke-width="0" opacity="0.9921568627450981" d="M 60.5 42 Q 63.5 43.5 60.5 45 L 58.5 44 L 57 44.5 L 60.5 42 Z " /><path fill="rgb(28,47,48)" stroke="rgb(28,47,48)" stroke-width="0" opacity="0.9921568627450981" d="M 47 50 L 50 50.5 L 44 53 L 42.5 55 Q 32.1 58.1 26 65.5 L 26.5 67 L 46.5 54 L 51 53 Q 50 50 53 51 L 52 59.5 L 49 66 L 44.5 66 L 36 74.5 L 38 96.5 L 37 96.5 L 36.5 92 L 36 148.5 L 38 158.5 L 37 164.5 L 38 173.5 L 36 173.5 L 35.5 176 L 32.5 170 L 31.5 172 L 31 170 L 27 169 Q 28 166 25 167 L 24.5 182 L 23 175.5 L 23 83.5 L 24 83.5 L 24.5 90 Q 23.4 83.9 26.5 82 L 28 81.5 L 27 79 Q 24 80.3 25 76.5 L 24 72.5 L 25 70.5 L 23 71.5 L 22.5 80 L 22 69.5 L 30.5 60 L 45.5 51 L 47 51.5 L 47 50 Z M 26 98 Q 25 103 29 106 L 29 140 L 28 141 L 28 153 L 30 153 L 30 106 L 32 99 L 26 98 Z " /><path fill="rgb(28,47,48)" stroke="rgb(28,47,48)" stroke-width="0" opacity="0.9921568627450981" d="M 207.5 50 L 212 52.5 L 210.5 52 L 207.5 50 Z " /><path fill="rgb(28,47,48)" stroke="rgb(28,47,48)" stroke-width="0" opacity="0.9921568627450981" d="M 207.5 53 L 224.5 64 L 229 65 L 230.5 68 L 231 66.5 L 230.5 65 L 234 69.5 L 234 83.5 L 233 83.5 L 233 70.5 L 231 70 L 231 83.5 L 229.5 84 L 231 86.5 L 231 137.5 L 232 139.5 L 232 141.5 L 231.5 186 L 230.5 166 L 226 175.5 L 226 179.5 L 227 182 Q 230.7 180.7 229 186.5 L 229 188.5 L 227.5 191 L 201 206 L 201 203 L 203 201.5 L 205 197 L 211.5 199 L 213 196 L 217 193.5 L 218 187 Q 221 188.3 220 184.5 Q 217.5 183 221 181.5 L 222 176.5 L 220.5 171 L 219.5 180 Q 216.9 177.6 218 171.5 L 220 153.5 L 220 91.5 L 221 90.5 L 219 88.5 L 219 73.5 L 216.5 70 L 212 69 L 207.5 53 Z M 228 110 L 225 131 L 225 153 L 223 159 L 230 158 Q 231 154 228 153 L 228 133 L 227 132 L 228 128 L 228 110 Z " /><path fill="rgb(28,47,48)" stroke="rgb(28,47,48)" stroke-width="0" opacity="0.9921568627450981" d="M 61.5 58 L 63 58.5 L 57.5 63 L 61.5 58 Z " /><path fill="rgb(28,47,48)" stroke="rgb(28,47,48)" stroke-width="0" opacity="0.9921568627450981" d="M 125 59 L 130 60.5 L 127 61.5 L 130 62 L 128.5 65 L 125 65 L 125 59 Z " /><path fill="rgb(28,47,48)" stroke="rgb(28,47,48)" stroke-width="0" opacity="0.9921568627450981" d="M 183.5 61 L 187.5 65 L 205 73 Q 203.2 77.9 209.5 76 L 212 78.5 L 212.5 109 L 213.5 99 L 214 143.5 L 213 144.5 L 213 165.5 L 214 175.5 L 209.5 181 L 172.5 203 L 172 200.5 L 174 195.5 L 173 192 L 165 190 L 166 194 L 163.5 193 L 163 195 L 159.5 196 L 157.5 187 L 156.5 189 L 151.5 188 L 151 190.5 L 149.5 194 L 146.5 196 L 146 194 L 143 194 Q 144 197 141 196 Q 140.6 186.5 133 182.5 L 133 167 L 137 169.5 L 138.5 172 L 151 180.5 L 152.5 182 L 173 188 Q 171.9 191.3 176 190 Q 174.7 186.3 180.5 188 L 193 182.5 L 196 168.5 L 192.5 160 Q 189.9 160.8 191 157.5 Q 188.3 151.2 177.5 153 L 171 157.5 Q 172 161.3 169 160 L 169 163.5 L 169.5 165 Q 166.3 164.6 168 172.5 L 165.5 173 L 160.5 173 Q 158.4 169.1 153 170 Q 154.7 165.9 150.5 167 L 147 164.5 L 148.5 163 Q 175.7 154.2 192 134.5 L 193 127.5 L 189.5 123 L 172.5 108 L 168 106 L 166.5 104 L 146.5 96 L 127.5 94 L 125.5 94 L 117.5 94 L 104.5 97 L 84 107 L 81.5 111 L 63 126.5 Q 63.9 139.1 72.5 144 Q 86.8 157 108 162 Q 109.5 165.8 106.5 165 L 105.5 168 L 104.5 167 L 100.5 171 L 89 175 L 87 160.5 L 82.5 155 Q 79.9 151.6 72.5 153 L 68 154 L 66.5 157 Q 62.1 155.5 63 158.5 L 60 174.5 L 62 184.5 L 61.5 186 L 67 187 L 68.5 190 Q 72.9 188.5 72 191.5 L 70.5 191 L 68 191.5 L 72.5 194 L 74.5 193 L 77 194 L 78.5 189 Q 90.9 188.4 99.5 184 L 122.5 167 L 123 182.5 L 115 194.5 L 115 202 Q 118.7 200.5 118 203.5 L 119 205.5 L 115.5 210 Q 112.2 211.1 113 208.5 L 110 199.5 L 111 192 Q 107.3 190.7 109 196.5 L 107.5 214 L 107 192.5 L 106 190 L 112 189 L 110.5 187 L 107.5 186 L 104 187 L 106 196.5 L 103.5 203 L 101 201.5 L 100.5 199 L 99.5 210 L 98.5 201 L 97 209.5 L 97.5 211 L 44 179 L 42 174.5 L 43 173.5 L 43 156.5 L 41 145.5 L 41 110.5 L 43 110.5 L 43 76.5 L 44.5 76 L 47.5 82 L 48 76 L 68.5 64 L 70.5 67 Q 77.8 64.4 76 70.5 L 77.5 70 L 81 70 L 82.5 72 L 85 71.5 L 86.5 69 L 89 70.5 Q 88.2 78.8 91.5 83 L 93 82.5 L 94 86.5 L 91.5 87 L 81 92.5 L 79.5 94 L 76 95 L 74.5 92 L 65.5 85 L 60 89.5 L 64 91.5 L 70 100.5 L 62 109.5 L 64.5 113 L 66 112.5 L 65.5 114 L 75 107.5 Q 73.8 103.8 77.5 105 L 97.5 92 L 119.5 86 L 130.5 87 L 132.5 86 L 150.5 90 L 166.5 96 L 180 106 L 181.5 108 L 188.5 114 L 191.5 114 L 194 108.5 L 185 100.5 L 193.5 91 Q 199.6 92.3 199 89.5 L 197.5 90 L 189.5 85 L 182 90.5 L 183 91.5 L 179.5 95 L 172.5 93 Q 169.3 88 163 87 L 168 69.5 L 162.5 68 L 156 79.5 L 156 83 L 131 79 L 132 72.5 L 132.5 70 L 134.5 69 L 136 69.5 L 137 66 L 139 66.5 L 137 75 Q 140.8 73.5 140 76.5 L 142.5 78 L 145.5 76 L 149 77 L 151.5 72 L 156 71.5 L 155 69.5 Q 159 64.5 170.5 67 L 180 71 L 182.5 76 L 186 73.5 L 184.5 70 Q 178.7 70.8 177 67.5 L 176 65.5 L 179 64.5 L 180.5 63 L 183.5 61 Z M 204 95 L 203 108 L 212 115 L 213 112 L 205 108 L 204 95 Z M 57 98 L 55 100 L 51 99 L 49 103 L 52 104 L 53 119 L 51 122 L 53 122 L 54 121 L 54 104 L 57 100 L 57 98 Z M 199 115 L 196 116 L 197 121 L 200 122 L 212 122 L 212 126 L 213 126 L 213 115 L 212 120 Q 204 121 201 117 Q 202 114 199 115 Z M 56 127 L 45 129 L 56 129 L 56 127 Z M 201 128 L 201 129 L 208 129 L 201 128 Z M 45 134 Q 44 138 53 136 L 54 137 L 54 134 L 45 134 Z M 204 134 L 202 136 L 203 153 L 203 137 L 205 137 Q 211 139 213 136 Q 211 132 204 134 Z M 60 139 L 58 142 L 63 144 L 62 141 Q 63 138 60 139 Z M 51 146 L 50 148 L 50 150 L 51 160 L 52 160 L 52 148 L 51 146 Z M 54 149 L 52 161 L 54 161 L 54 149 Z M 45 162 L 44 177 L 47 179 L 48 179 L 47 176 L 49 176 L 49 174 L 46 172 L 46 164 L 45 162 Z " /><path fill="rgb(28,47,48)" stroke="rgb(28,47,48)" stroke-width="0" opacity="0.9921568627450981" d="M 118.5 66 L 125 72.5 L 125 79.5 L 123.5 79 L 100 83 L 95 69.5 L 99 72.5 L 100.5 76 L 104.5 75 L 114.5 77 L 118 76 L 118.5 66 Z " /><path fill="rgb(28,47,48)" stroke="rgb(28,47,48)" stroke-width="0" opacity="0.9921568627450981" d="M 124.5 101 L 131.5 102 L 133.5 102 Q 144.4 103.1 149 110.5 L 154 119.5 L 155 132.5 Q 152.5 143 145.5 149 L 130.5 155 L 114.5 152 L 106 143.5 L 102 136.5 L 101 122.5 Q 103.4 112.4 110.5 107 L 124.5 101 Z M 124 105 L 119 107 L 117 109 L 114 109 L 105 125 L 106 128 L 108 129 L 111 118 Q 116 110 128 108 L 138 111 L 139 114 Q 137 120 144 117 L 145 115 L 144 110 Q 140 111 141 108 L 134 105 L 131 106 L 124 105 Z M 123 112 Q 124 115 121 114 L 113 125 L 114 132 L 113 134 L 115 139 L 123 143 L 124 145 Q 133 146 138 141 L 144 131 Q 144 118 136 114 Q 131 115 132 112 L 130 113 L 123 112 Z M 149 127 L 144 141 L 133 148 L 126 148 L 116 143 L 113 144 L 115 147 Q 118 146 117 149 L 126 151 Q 135 152 140 148 Q 149 142 151 129 L 149 127 Z " /><path fill="rgb(28,47,48)" stroke="rgb(28,47,48)" stroke-width="0" opacity="0.9921568627450981" d="M 98.5 107 Q 101.8 105.9 101 108.5 Q 92.9 116.4 94 133.5 L 97 147 L 93 145.5 L 91.5 143 L 89.5 144 L 73 129.5 L 82.5 118 Q 86.9 119.5 86 116.5 L 89 112 Q 96.7 113.2 98.5 107 Z " /><path fill="rgb(28,47,48)" stroke="rgb(28,47,48)" stroke-width="0" opacity="0.9921568627450981" d="M 156.5 108 L 171 118.5 L 172.5 120 L 183 127 L 180 134 L 158.5 148 L 159 146.5 L 157.5 145 L 159 142.5 L 158 140.5 L 161 136.5 L 161 120.5 L 155 109.5 L 156.5 108 Z " /><path fill="rgb(28,47,48)" stroke="rgb(28,47,48)" stroke-width="0" opacity="0.9921568627450981" d="M 125 120 L 130 120.5 L 129 123.5 L 131.5 127 L 135.5 126 L 136 131.5 Q 133.6 137.1 125.5 137 Q 119.4 134.6 119 126.5 L 120 123 L 125 122 L 125 120 Z " /><path fill="rgb(28,47,48)" stroke="rgb(28,47,48)" stroke-width="0" opacity="0.9921568627450981" d="M 108.5 172 L 105.5 176 L 108.5 172 Z " /><path fill="rgb(28,47,48)" stroke="rgb(28,47,48)" stroke-width="0" opacity="0.9921568627450981" d="M 69.5 174 L 73 175 L 74.5 178 L 85 178.5 L 75.5 181 Q 74.1 177.4 69 177.5 L 70 175.5 L 69.5 174 Z " /><path fill="rgb(28,47,48)" stroke="rgb(28,47,48)" stroke-width="0" opacity="0.9921568627450981" d="M 46.5 193 L 47 196 L 52 197.5 L 48.5 199 L 45 196.5 L 46.5 193 Z " /><path fill="rgb(28,47,48)" stroke="rgb(28,47,48)" stroke-width="0" opacity="0.9921568627450981" d="M 48.5 200 Q 52.3 198.8 51 202.5 L 52 204.5 L 50.5 204 L 46 201.5 L 48.5 200 Z " /><path fill="rgb(28,47,48)" stroke="rgb(28,47,48)" stroke-width="0" opacity="0.9921568627450981" d="M 58.5 202 L 64 205.5 L 60.5 205 L 58.5 202 Z " /><path fill="rgb(28,47,48)" stroke="rgb(28,47,48)" stroke-width="0" opacity="0.9921568627450981" d="M 167 202 L 171 203.5 L 131.5 227 L 124.5 227 L 99 211.5 L 103.5 210 L 103.5 211 L 102 211.5 L 104 212 L 105.5 214 L 116 218 L 117.5 221 L 119 220.5 L 119 209.5 L 120 209.5 L 121 211.5 L 120 223 L 127.5 225 L 129.5 225 L 134 224 L 134 222 L 139.5 220 L 150.5 213 L 154 213 L 155.5 208 L 159 209 L 161 205.5 L 160.5 204 L 164.5 203 L 165.5 205 L 167 202 Z " /><path fill="rgb(28,47,48)" stroke="rgb(28,47,48)" stroke-width="0" opacity="0.9921568627450981" d="M 196.5 202 L 197 204 L 180 213.5 L 180.5 216 L 182 213 L 188.5 213 L 197.5 208 L 197.5 209 L 131.5 248 L 123.5 247 L 108.5 238 L 106 237.5 L 104.5 235 L 73 217.5 L 78.5 214 L 79.5 216 L 78 215.5 Q 76.7 220.1 82.5 218 Q 80.8 220 84.5 222 L 86.5 224 L 93 224 L 93 226.5 L 94 229 L 100 227.5 L 101 224.5 L 96 221.5 L 97 219.5 L 95.5 217 L 112 226 L 112 228 L 115.5 230 L 117.5 229 L 119.5 233 L 121.5 232 L 127.5 235 L 129.5 235 L 137 233 Q 135.8 230 139.5 231 L 141 228 Q 145.3 229 144.5 226 L 148.5 226 L 157.5 219 L 158 221 L 164.5 219 L 164.5 220 L 155 223 Q 153.8 226 157.5 225 L 160 226.5 L 158.5 227 L 156 226 L 157.5 229 L 163 227.5 Q 161.3 222.7 165.5 224 L 167 221 L 171 219.5 Q 169.9 216.2 172.5 217 L 174.5 218 L 176 214 L 196.5 202 Z " /><path fill="rgb(28,47,48)" stroke="rgb(28,47,48)" stroke-width="0" opacity="0.9921568627450981" d="M 53.5 204 L 57.5 208 L 71 214 L 72 216.5 L 70.5 216 L 53 205.5 L 53.5 204 Z " /><path fill="rgb(28,47,48)" stroke="rgb(28,47,48)" stroke-width="0" opacity="0.9921568627450981" d="M 147.5 204 Q 150.8 205.8 149 212.5 L 148 212.5 L 147.5 204 Z " /><path fill="rgb(28,47,48)" stroke="rgb(28,47,48)" stroke-width="0" opacity="0.9921568627450981" d="M 71.5 209 L 74 210 L 75 212.5 L 71.5 209 Z " /><path fill="rgb(0,0,0)" stroke="rgb(0,0,0)" stroke-width="0" opacity="0" d="M 0 0 L 256 0 L 256 256 L 0 256 L 0 0 Z M 19 4 L 19 116 L 20 117 L 19 119 L 19 179 L 21 182 L 20 181 L 19 252 L 121 252 L 117 250 L 118 248 L 124 252 Q 132 254 136 250 L 135 252 L 246 252 L 246 4 L 19 4 Z " /><path fill="rgb(0,0,0)" stroke="rgb(0,0,0)" stroke-width="0" opacity="0" d="M 81.5 29 L 84 30.5 L 80.5 33 L 78.5 32 L 77 32.5 L 81.5 29 Z " /><path fill="rgb(0,0,0)" stroke="rgb(0,0,0)" stroke-width="0" opacity="0" d="M 228.5 60 L 231.5 64 L 228 61.5 L 228.5 60 Z " /><path fill="rgb(0,0,0)" stroke="rgb(0,0,0)" stroke-width="0" opacity="0" d="M 29.5 135 L 30 141.5 L 29 141.5 L 29.5 135 Z " /><path fill="rgb(0,0,0)" stroke="rgb(0,0,0)" stroke-width="0" opacity="0" d="M 177.5 161 L 182 163.5 L 180.5 163 L 177.5 161 Z " /><path fill="rgb(0,0,0)" stroke="rgb(0,0,0)" stroke-width="0" opacity="0" d="M 172.5 176 L 181 176.5 L 173.5 178 L 172.5 176 Z " /><path fill="rgb(0,0,0)" stroke="rgb(0,0,0)" stroke-width="0" opacity="0" d="M 151 189 L 157 190.5 L 154.5 192 L 151 191 L 151 189 Z " /><path fill="rgb(0,0,0)" stroke="rgb(0,0,0)" stroke-width="0" opacity="0" d="M 166.5 191 L 169 195 L 166 194.5 L 167 192.5 L 166.5 191 Z " /><path fill="rgb(0,0,0)" stroke="rgb(0,0,0)" stroke-width="0" opacity="0" d="M 142.5 202 L 139.5 206 L 142.5 202 Z " /><path fill="rgb(0,0,0)" stroke="rgb(0,0,0)" stroke-width="0" opacity="0" d="M 161.5 222 L 159.5 225 L 157 223.5 L 161.5 222 Z " /><path fill="rgb(0,0,0)" stroke="rgb(0,0,0)" stroke-width="0" opacity="0" d="M 95.5 223 L 100 224 Q 101.5 227.8 98.5 227 L 96 226 L 95.5 223 Z " /><path fill="rgb(16,29,29)" stroke="rgb(16,29,29)" stroke-width="0" opacity="0.5098039215686274" d="M 146.5 30 L 147.5 34 L 144 31.5 L 146.5 30 Z " /><path fill="rgb(16,29,29)" stroke="rgb(16,29,29)" stroke-width="0" opacity="0.5098039215686274" d="M 151.5 33 L 152.5 35 L 150.5 36 L 149.5 34 L 151 34.5 L 151.5 33 Z " /><path fill="rgb(16,29,29)" stroke="rgb(16,29,29)" stroke-width="0" opacity="0.5098039215686274" d="M 190.5 40 L 191 42 L 193.5 43 L 195 42.5 L 192.5 44 L 189 42.5 L 190.5 40 Z " /><path fill="rgb(16,29,29)" stroke="rgb(16,29,29)" stroke-width="0" opacity="0.5098039215686274" d="M 64.5 41 L 67 41.5 L 62.5 44 L 62 42 L 64.5 41 Z " /><path fill="rgb(16,29,29)" stroke="rgb(16,29,29)" stroke-width="0" opacity="0.5098039215686274" d="M 59.5 44 L 57 47.5 L 55.5 49 L 56.5 45 L 59.5 44 Z " /><path fill="rgb(16,29,29)" stroke="rgb(16,29,29)" stroke-width="0" opacity="0.5098039215686274" d="M 34.5 57 L 36.5 58 L 38 57.5 L 34.5 60 L 34.5 57 Z " /><path fill="rgb(16,29,29)" stroke="rgb(16,29,29)" stroke-width="0" opacity="0.5098039215686274" d="M 196.5 59 L 200 61.5 L 198.5 61 L 196.5 60 L 194.5 61 L 194.5 60 L 196.5 59 Z " /><path fill="rgb(16,29,29)" stroke="rgb(16,29,29)" stroke-width="0" opacity="0.5098039215686274" d="M 225.5 60 L 228 64.5 L 225 62.5 L 225.5 60 Z " /><path fill="rgb(16,29,29)" stroke="rgb(16,29,29)" stroke-width="0" opacity="0.5098039215686274" d="M 185.5 62 L 190 64.5 L 188.5 65 L 185.5 62 Z " /><path fill="rgb(16,29,29)" stroke="rgb(16,29,29)" stroke-width="0" opacity="0.5098039215686274" d="M 229.5 63 L 230.5 67 L 229 65.5 L 229.5 63 Z " /><path fill="rgb(16,29,29)" stroke="rgb(16,29,29)" stroke-width="0" opacity="0.5098039215686274" d="M 173.5 66 L 177 68.5 L 175.5 69 L 172 67.5 L 173.5 66 Z " /><path fill="rgb(16,29,29)" stroke="rgb(16,29,29)" stroke-width="0" opacity="0.5098039215686274" d="M 21.5 75 L 22 92.5 L 21 92.5 L 21.5 75 Z " /><path fill="rgb(16,29,29)" stroke="rgb(16,29,29)" stroke-width="0" opacity="0.5098039215686274" d="M 37.5 75 L 38 82.5 L 37 82.5 L 37.5 75 Z " /><path fill="rgb(16,29,29)" stroke="rgb(16,29,29)" stroke-width="0" opacity="0.5098039215686274" d="M 232.5 78 L 233 92.5 L 232 92.5 L 230 85.5 L 232.5 78 Z " /><path fill="rgb(16,29,29)" stroke="rgb(16,29,29)" stroke-width="0" opacity="0.5098039215686274" d="M 234.5 79 L 235 93.5 L 234 93.5 L 234.5 79 Z " /><path fill="rgb(16,29,29)" stroke="rgb(16,29,29)" stroke-width="0" opacity="0.5098039215686274" d="M 213.5 87 L 214 93 L 212 92.5 L 213.5 87 Z " /><path fill="rgb(16,29,29)" stroke="rgb(16,29,29)" stroke-width="0" opacity="0.5098039215686274" d="M 42.5 90 L 43 103.5 L 42 103.5 L 42.5 90 Z " /><path fill="rgb(16,29,29)" stroke="rgb(16,29,29)" stroke-width="0" opacity="0.5098039215686274" d="M 186.5 110 L 191 113.5 L 187 112.5 L 186.5 110 Z " /><path fill="rgb(16,29,29)" stroke="rgb(16,29,29)" stroke-width="0" opacity="0.5098039215686274" d="M 115.5 112 L 111.5 117 L 115.5 112 Z " /><path fill="rgb(16,29,29)" stroke="rgb(16,29,29)" stroke-width="0" opacity="0.5098039215686274" d="M 71.5 118 L 63.5 127 L 71.5 118 Z " /><path fill="rgb(16,29,29)" stroke="rgb(16,29,29)" stroke-width="0" opacity="0.5098039215686274" d="M 231.5 118 L 232 125.5 L 231 125.5 L 231.5 118 Z " /><path fill="rgb(16,29,29)" stroke="rgb(16,29,29)" stroke-width="0" opacity="0.5098039215686274" d="M 29.5 119 L 30 125.5 L 29 125.5 L 29.5 119 Z " /><path fill="rgb(16,29,29)" stroke="rgb(16,29,29)" stroke-width="0" opacity="0.5098039215686274" d="M 74.5 123 L 75 125.5 L 73.5 128 L 74 126.5 L 75 124.5 L 74.5 123 Z " /><path fill="rgb(16,29,29)" stroke="rgb(16,29,29)" stroke-width="0" opacity="0.5098039215686274" d="M 66.5 133 L 72.5 140 L 67 135.5 L 68 137.5 L 66 136.5 L 67 134.5 L 66.5 133 Z " /><path fill="rgb(16,29,29)" stroke="rgb(16,29,29)" stroke-width="0" opacity="0.5098039215686274" d="M 188.5 134 L 187.5 137 L 191.5 134 L 180.5 146 L 186 139.5 L 185.5 138 L 184 138.5 L 188.5 134 Z " /><path fill="rgb(16,29,29)" stroke="rgb(16,29,29)" stroke-width="0" opacity="0.5098039215686274" d="M 79.5 144 L 87 149.5 L 85.5 149 L 79.5 144 Z " /><path fill="rgb(16,29,29)" stroke="rgb(16,29,29)" stroke-width="0" opacity="0.5098039215686274" d="M 178.5 145 L 177 147.5 L 175.5 149 L 174 149.5 L 178.5 145 Z " /><path fill="rgb(16,29,29)" stroke="rgb(16,29,29)" stroke-width="0" opacity="0.5098039215686274" d="M 213.5 146 L 214 157.5 L 213 157.5 L 213.5 146 Z " /><path fill="rgb(16,29,29)" stroke="rgb(16,29,29)" stroke-width="0" opacity="0.5098039215686274" d="M 50.5 147 Q 53.9 146.1 52 151.5 L 50 152.5 L 51 148.5 L 50.5 147 Z " /><path fill="rgb(16,29,29)" stroke="rgb(16,29,29)" stroke-width="0" opacity="0.5098039215686274" d="M 90.5 151 L 95 153.5 L 93.5 154 L 90.5 151 Z " /><path fill="rgb(16,29,29)" stroke="rgb(16,29,29)" stroke-width="0" opacity="0.5098039215686274" d="M 169.5 152 L 168.5 154 L 164.5 156 L 165.5 154 L 169.5 152 Z " /><path fill="rgb(16,29,29)" stroke="rgb(16,29,29)" stroke-width="0" opacity="0.5098039215686274" d="M 142.5 169 L 147 172.5 L 145.5 173 L 142.5 169 Z " /><path fill="rgb(16,29,29)" stroke="rgb(16,29,29)" stroke-width="0" opacity="0.5098039215686274" d="M 70.5 172 L 72.5 175 L 69 173.5 L 70.5 172 Z " /><path fill="rgb(16,29,29)" stroke="rgb(16,29,29)" stroke-width="0" opacity="0.5098039215686274" d="M 86.5 181 L 85.5 183 L 81 182.5 L 86.5 181 Z " /><path fill="rgb(16,29,29)" stroke="rgb(16,29,29)" stroke-width="0" opacity="0.5098039215686274" d="M 147.5 197 L 148 198.5 L 143 202.5 L 145.5 198 L 147 198.5 L 147.5 197 Z " /><path fill="rgb(16,29,29)" stroke="rgb(16,29,29)" stroke-width="0" opacity="0.5098039215686274" d="M 65.5 207 L 70 209.5 L 68.5 210 L 65.5 207 Z " /><path fill="rgb(16,29,29)" stroke="rgb(16,29,29)" stroke-width="0" opacity="0.5098039215686274" d="M 118 207 L 120 207.5 L 118.5 215 L 118 207 Z " /><path fill="rgb(16,29,29)" stroke="rgb(16,29,29)" stroke-width="0" opacity="0.5098039215686274" d="M 79.5 212 L 79.5 215 L 77.5 215 L 75 213.5 L 77.5 213 L 79.5 212 Z " /><path fill="rgb(16,29,29)" stroke="rgb(16,29,29)" stroke-width="0" opacity="0.5098039215686274" d="M 73.5 218 L 79 221.5 L 77.5 221 L 73.5 218 Z " /><path fill="rgb(16,29,29)" stroke="rgb(16,29,29)" stroke-width="0" opacity="0.5098039215686274" d="M 85.5 225 L 95 230.5 L 93.5 231 L 85.5 225 Z " /><path fill="rgb(16,29,29)" stroke="rgb(16,29,29)" stroke-width="0" opacity="0.5098039215686274" d="M 116.5 226 L 122 229.5 L 120.5 229 L 116.5 226 Z " /><path fill="rgb(30,55,51)" stroke="rgb(30,55,51)" stroke-width="0" opacity="0.7725490196078432" d="M 171.5 28 L 174 31.5 L 172.5 31 L 171 30.5 L 171.5 28 Z " /><path fill="rgb(30,55,51)" stroke="rgb(30,55,51)" stroke-width="0" opacity="0.7725490196078432" d="M 77.5 33 L 79 33.5 L 77 34 L 75.5 37 L 76 35.5 L 77.5 33 Z " /><path fill="rgb(30,55,51)" stroke="rgb(30,55,51)" stroke-width="0" opacity="0.7725490196078432" d="M 153.5 34 L 154 36 Q 158.1 34.7 157 38 L 153 35.5 L 153.5 34 Z " /><path fill="rgb(30,55,51)" stroke="rgb(30,55,51)" stroke-width="0" opacity="0.7725490196078432" d="M 184.5 36 L 187 37.5 L 185.5 39 L 184 39.5 L 185.5 37 L 184.5 36 Z " /><path fill="rgb(30,55,51)" stroke="rgb(30,55,51)" stroke-width="0" opacity="0.7725490196078432" d="M 66.5 39 L 68.5 40 L 70 39.5 L 67.5 40 L 65.5 41 L 66.5 39 Z " /><path fill="rgb(30,55,51)" stroke="rgb(30,55,51)" stroke-width="0" opacity="0.7725490196078432" d="M 212.5 52 L 213.5 54 L 215 53.5 L 212 55.5 L 212.5 52 Z " /><path fill="rgb(30,55,51)" stroke="rgb(30,55,51)" stroke-width="0" opacity="0.7725490196078432" d="M 63.5 58 L 65 58.5 L 59.5 62 Q 58 59.5 56.5 63 L 54 62.5 L 58.5 60 L 60.5 61 L 63.5 58 Z " /><path fill="rgb(30,55,51)" stroke="rgb(30,55,51)" stroke-width="0" opacity="0.7725490196078432" d="M 130.5 60 L 130.5 63 L 127 61.5 L 130.5 60 Z " /><path fill="rgb(30,55,51)" stroke="rgb(30,55,51)" stroke-width="0" opacity="0.7725490196078432" d="M 44.5 66 L 40.5 71 L 44.5 66 Z " /><path fill="rgb(30,55,51)" stroke="rgb(30,55,51)" stroke-width="0" opacity="0.7725490196078432" d="M 99 72 L 101 73.5 L 100.5 75 L 102 75.5 L 100.5 76 L 99 72 Z " /><path fill="rgb(30,55,51)" stroke="rgb(30,55,51)" stroke-width="0" opacity="0.7725490196078432" d="M 46.5 75 L 46.5 77 Q 49.9 76.1 48 81.5 L 47 81.5 L 45 76.5 L 46.5 75 Z " /><path fill="rgb(30,55,51)" stroke="rgb(30,55,51)" stroke-width="0" opacity="0.7725490196078432" d="M 90.5 77 L 93 81.5 L 91 82.5 L 90.5 77 Z " /><path fill="rgb(30,55,51)" stroke="rgb(30,55,51)" stroke-width="0" opacity="0.7725490196078432" d="M 24.5 78 L 25 80.5 L 26 82.5 L 23 83 L 24.5 78 Z " /><path fill="rgb(30,55,51)" stroke="rgb(30,55,51)" stroke-width="0" opacity="0.7725490196078432" d="M 213.5 93 L 214 98.5 L 212.5 107 L 212 97.5 L 213.5 93 Z " /><path fill="rgb(30,55,51)" stroke="rgb(30,55,51)" stroke-width="0" opacity="0.7725490196078432" d="M 219.5 94 L 220 101.5 L 218 100.5 L 219.5 94 Z " /><path fill="rgb(30,55,51)" stroke="rgb(30,55,51)" stroke-width="0" opacity="0.7725490196078432" d="M 42.5 104 L 43 110.5 L 42 110.5 L 42.5 104 Z " /><path fill="rgb(30,55,51)" stroke="rgb(30,55,51)" stroke-width="0" opacity="0.7725490196078432" d="M 37.5 107 L 38 108.5 L 37 109.5 L 36.5 131 L 36 108.5 L 37.5 107 Z " /><path fill="rgb(30,55,51)" stroke="rgb(30,55,51)" stroke-width="0" opacity="0.7725490196078432" d="M 52.5 109 L 54 114.5 L 53 114.5 L 52.5 109 Z " /><path fill="rgb(30,55,51)" stroke="rgb(30,55,51)" stroke-width="0" opacity="0.7725490196078432" d="M 231.5 126 L 232 134.5 L 231 134.5 L 231.5 126 Z " /><path fill="rgb(30,55,51)" stroke="rgb(30,55,51)" stroke-width="0" opacity="0.7725490196078432" d="M 225.5 133 L 227 147.5 L 226 149.5 L 226.5 151 L 225 150.5 L 225.5 133 Z " /><path fill="rgb(30,55,51)" stroke="rgb(30,55,51)" stroke-width="0" opacity="0.7725490196078432" d="M 69.5 140 L 72.5 144 L 69.5 140 Z " /><path fill="rgb(30,55,51)" stroke="rgb(30,55,51)" stroke-width="0" opacity="0.7725490196078432" d="M 219.5 146 L 220 150 Q 215.9 151.7 217 147.5 L 219 147.5 L 219.5 146 Z " /><path fill="rgb(30,55,51)" stroke="rgb(30,55,51)" stroke-width="0" opacity="0.7725490196078432" d="M 37.5 148 L 38 155.5 L 37 155.5 L 37.5 148 Z " /><path fill="rgb(30,55,51)" stroke="rgb(30,55,51)" stroke-width="0" opacity="0.7725490196078432" d="M 213.5 158 L 214 165.5 L 213 165.5 L 213.5 158 Z " /><path fill="rgb(30,55,51)" stroke="rgb(30,55,51)" stroke-width="0" opacity="0.7725490196078432" d="M 62.5 163 L 63 169.5 L 62 169.5 L 62.5 163 Z " /><path fill="rgb(30,55,51)" stroke="rgb(30,55,51)" stroke-width="0" opacity="0.7725490196078432" d="M 218.5 178 L 219 180 L 221 180.5 L 219.5 181 L 216 181.5 L 218.5 178 Z " /><path fill="rgb(30,55,51)" stroke="rgb(30,55,51)" stroke-width="0" opacity="0.7725490196078432" d="M 158.5 195 L 160.5 195 L 163 196.5 L 161.5 196 L 159.5 197 L 158.5 195 Z " /><path fill="rgb(30,55,51)" stroke="rgb(30,55,51)" stroke-width="0" opacity="0.7725490196078432" d="M 108.5 200 L 109 213.5 L 107 214.5 L 108.5 200 Z " /><path fill="rgb(30,55,51)" stroke="rgb(30,55,51)" stroke-width="0" opacity="0.7725490196078432" d="M 61.5 204 L 64.5 205 L 73 209.5 L 70 209.5 L 69.5 208 L 68 208.5 L 67.5 207 L 66 207.5 L 65.5 206 L 64 206.5 L 63.5 205 Q 61.7 207.5 61.5 204 Z " /><path fill="rgb(30,55,51)" stroke="rgb(30,55,51)" stroke-width="0" opacity="0.7725490196078432" d="M 175.5 214 L 176 216 L 174 217.5 L 172 218.5 L 173 215 L 175.5 214 Z " /><path fill="rgb(30,55,51)" stroke="rgb(30,55,51)" stroke-width="0" opacity="0.7725490196078432" d="M 165.5 220 Q 168.1 219.2 167 222.5 L 166 222.5 L 165.5 221 L 164.5 223 L 162 221.5 L 165.5 220 Z " /><path fill="rgb(16,26,23)" stroke="rgb(16,26,23)" stroke-width="0" opacity="0.16862745098039217" d="M 73.5 4 L 80 4.5 L 73.5 5 L 73.5 4 Z " /><path fill="rgb(16,26,23)" stroke="rgb(16,26,23)" stroke-width="0" opacity="0.16862745098039217" d="M 167.5 24 L 169.5 27 L 166 25.5 L 167.5 24 Z " /><path fill="rgb(16,26,23)" stroke="rgb(16,26,23)" stroke-width="0" opacity="0.16862745098039217" d="M 180.5 33 L 184 35.5 L 182.5 35 L 180.5 36 L 180.5 33 Z " /><path fill="rgb(16,26,23)" stroke="rgb(16,26,23)" stroke-width="0" opacity="0.16862745098039217" d="M 186.5 36 L 188 37.5 L 190 37.5 Q 187.5 41.2 186.5 36 Z " /><path fill="rgb(16,26,23)" stroke="rgb(16,26,23)" stroke-width="0" opacity="0.16862745098039217" d="M 24.5 62 L 27 62.5 L 25.5 65 L 24.5 63 L 22 64.5 L 24.5 62 Z " /><path fill="rgb(16,26,23)" stroke="rgb(16,26,23)" stroke-width="0" opacity="0.16862745098039217" d="M 231.5 73 L 233 77.5 L 231.5 81 L 231.5 73 Z " /><path fill="rgb(16,26,23)" stroke="rgb(16,26,23)" stroke-width="0" opacity="0.16862745098039217" d="M 159.5 74 L 160 75.5 L 157.5 79 L 158 77.5 L 159.5 74 Z " /><path fill="rgb(16,26,23)" stroke="rgb(16,26,23)" stroke-width="0" opacity="0.16862745098039217" d="M 19.5 75 L 20 112.5 L 21 113.5 L 19 114.5 L 19.5 75 Z " /><path fill="rgb(16,26,23)" stroke="rgb(16,26,23)" stroke-width="0" opacity="0.16862745098039217" d="M 212.5 77 L 214 80.5 L 213.5 87 L 212.5 77 Z " /><path fill="rgb(16,26,23)" stroke="rgb(16,26,23)" stroke-width="0" opacity="0.16862745098039217" d="M 42.5 80 L 43 89.5 L 42 89.5 L 42.5 80 Z " /><path fill="rgb(16,26,23)" stroke="rgb(16,26,23)" stroke-width="0" opacity="0.16862745098039217" d="M 235.5 81 L 237 85.5 L 237 87.5 L 236 94.5 L 237 96.5 L 237 100.5 L 238 102.5 L 236 102.5 L 235.5 111 L 235.5 81 Z " /><path fill="rgb(16,26,23)" stroke="rgb(16,26,23)" stroke-width="0" opacity="0.16862745098039217" d="M 93.5 93 L 95 93.5 L 87.5 97 L 87.5 96 L 93.5 93 Z " /><path fill="rgb(16,26,23)" stroke="rgb(16,26,23)" stroke-width="0" opacity="0.16862745098039217" d="M 231.5 109 L 232 117.5 L 231 117.5 L 231.5 109 Z " /><path fill="rgb(16,26,23)" stroke="rgb(16,26,23)" stroke-width="0" opacity="0.16862745098039217" d="M 175.5 137 L 172.5 141 L 173 139.5 L 174.5 138 L 175.5 137 Z " /><path fill="rgb(16,26,23)" stroke="rgb(16,26,23)" stroke-width="0" opacity="0.16862745098039217" d="M 118.5 139 L 124 142.5 L 122.5 143 L 118.5 139 Z " /><path fill="rgb(16,26,23)" stroke="rgb(16,26,23)" stroke-width="0" opacity="0.16862745098039217" d="M 182.5 139 L 179.5 143 L 182.5 139 Z " /><path fill="rgb(16,26,23)" stroke="rgb(16,26,23)" stroke-width="0" opacity="0.16862745098039217" d="M 144.5 141 L 145 142.5 L 141 145.5 L 144.5 141 Z " /><path fill="rgb(16,26,23)" stroke="rgb(16,26,23)" stroke-width="0" opacity="0.16862745098039217" d="M 227.5 141 L 228 147.5 L 227 147.5 L 227.5 141 Z " /><path fill="rgb(16,26,23)" stroke="rgb(16,26,23)" stroke-width="0" opacity="0.16862745098039217" d="M 105.5 144 L 113 150.5 L 111.5 151 L 105.5 144 Z " /><path fill="rgb(16,26,23)" stroke="rgb(16,26,23)" stroke-width="0" opacity="0.16862745098039217" d="M 51.5 152 L 52 158.5 L 51 158.5 L 50 153.5 L 51.5 152 Z " /><path fill="rgb(16,26,23)" stroke="rgb(16,26,23)" stroke-width="0" opacity="0.16862745098039217" d="M 77.5 153 L 82 155.5 L 80.5 155 L 77.5 153 Z " /><path fill="rgb(16,26,23)" stroke="rgb(16,26,23)" stroke-width="0" opacity="0.16862745098039217" d="M 93.5 173 L 94.5 175 L 91.5 177 L 90 176.5 L 89.5 178 L 89 176.5 L 93 174.5 L 93.5 173 Z " /><path fill="rgb(16,26,23)" stroke="rgb(16,26,23)" stroke-width="0" opacity="0.16862745098039217" d="M 164.5 173 L 167 176.5 Q 164.8 178.4 162.5 175 L 161 174.5 L 162.5 174 L 165 175.5 L 164.5 173 Z " /><path fill="rgb(16,26,23)" stroke="rgb(16,26,23)" stroke-width="0" opacity="0.16862745098039217" d="M 85.5 176 L 86.5 178 L 84.5 178 L 82 177.5 L 85.5 176 Z " /><path fill="rgb(16,26,23)" stroke="rgb(16,26,23)" stroke-width="0" opacity="0.16862745098039217" d="M 216.5 180 L 216.5 183 L 214.5 184 L 215 182.5 L 216.5 180 Z " /><path fill="rgb(16,26,23)" stroke="rgb(16,26,23)" stroke-width="0" opacity="0.16862745098039217" d="M 36.5 181 L 40 182.5 L 40 184.5 L 39.5 186 L 36.5 181 Z " /><path fill="rgb(16,26,23)" stroke="rgb(16,26,23)" stroke-width="0" opacity="0.16862745098039217" d="M 142.5 201 Q 144.6 204 139.5 207 L 140 203.5 L 142.5 201 Z " /><path fill="rgb(16,26,23)" stroke="rgb(16,26,23)" stroke-width="0" opacity="0.16862745098039217" d="M 72.5 204 L 77 206.5 L 75.5 207 L 72.5 204 Z " /><path fill="rgb(16,26,23)" stroke="rgb(16,26,23)" stroke-width="0" opacity="0.16862745098039217" d="M 73.5 209 L 75 210.5 L 77 213.5 L 75 212.5 L 73.5 209 Z " /><path fill="rgb(60,154,104)" stroke="rgb(60,154,104)" stroke-width="0" opacity="0.9372549019607843" d="M 160 29 L 163 30.5 L 164.5 33 L 185 45.5 L 183.5 45 L 161 32.5 L 160 29 Z " /><path fill="rgb(60,154,104)" stroke="rgb(60,154,104)" stroke-width="0" opacity="0.9372549019607843" d="M 94.5 30 L 96 33 L 68.5 47 L 69.5 45 L 94.5 30 Z " /><path fill="rgb(60,154,104)" stroke="rgb(60,154,104)" stroke-width="0" opacity="0.9372549019607843" d="M 133.5 30 L 146 38.5 L 144.5 38 L 133 31.5 L 133.5 30 Z " /><path fill="rgb(60,154,104)" stroke="rgb(60,154,104)" stroke-width="0" opacity="0.9372549019607843" d="M 121.5 31 L 123 31.5 L 114.5 36 L 114.5 35 L 121.5 31 Z " /><path fill="rgb(60,154,104)" stroke="rgb(60,154,104)" stroke-width="0" opacity="0.9372549019607843" d="M 147.5 39 L 153 42.5 L 151.5 42 L 147.5 39 Z " /><path fill="rgb(60,154,104)" stroke="rgb(60,154,104)" stroke-width="0" opacity="0.9372549019607843" d="M 92.5 41 L 94 41.5 L 68.5 56 L 68.5 55 L 92.5 41 Z " /><path fill="rgb(60,154,104)" stroke="rgb(60,154,104)" stroke-width="0" opacity="0.9372549019607843" d="M 118.5 44 L 119 48.5 L 113.5 53 L 116.5 49 L 118 49 L 118.5 44 Z " /><path fill="rgb(60,154,104)" stroke="rgb(60,154,104)" stroke-width="0" opacity="0.9372549019607843" d="M 167.5 44 L 173 47.5 L 171.5 47 L 167.5 44 Z " /><path fill="rgb(60,154,104)" stroke="rgb(60,154,104)" stroke-width="0" opacity="0.9372549019607843" d="M 147.5 54 Q 146.8 61.8 151 64.5 L 149 65.5 Q 150.1 61.3 146 63 L 145.5 65 L 145 62.5 Q 148.6 60.6 147.5 54 Z " /><path fill="rgb(60,154,104)" stroke="rgb(60,154,104)" stroke-width="0" opacity="0.9372549019607843" d="M 188.5 95 L 185.5 99 L 188.5 95 Z " /><path fill="rgb(60,154,104)" stroke="rgb(60,154,104)" stroke-width="0" opacity="0.9372549019607843" d="M 28.5 98 L 31 99 L 29.5 118 L 29 102.5 L 27 99.5 L 28.5 98 Z " /><path fill="rgb(60,154,104)" stroke="rgb(60,154,104)" stroke-width="0" opacity="0.9372549019607843" d="M 72.5 101 L 75 102.5 L 72 108 L 65.5 112 L 63 108.5 L 65 108 L 68.5 103 L 70 103.5 L 71.5 102 L 72.5 101 Z " /><path fill="rgb(60,154,104)" stroke="rgb(60,154,104)" stroke-width="0" opacity="0.9372549019607843" d="M 186.5 104 Q 190.3 102.8 189 106.5 L 191 106.5 L 192 110.5 L 189.5 112 L 186 109.5 L 184.5 107 L 183 107.5 L 186.5 104 Z " /><path fill="rgb(60,154,104)" stroke="rgb(60,154,104)" stroke-width="0" opacity="0.9372549019607843" d="M 37.5 111 L 38 143.5 L 37 143.5 L 37.5 111 Z " /><path fill="rgb(60,154,104)" stroke="rgb(60,154,104)" stroke-width="0" opacity="0.9372549019607843" d="M 81 111 L 83 112.5 L 85 116 L 79 118.5 L 77.5 121 L 73 124.5 L 70 129.5 L 77 134.5 L 79.5 138 L 81 137.5 Q 78.3 139.2 82.5 141 L 84.5 140 L 86.5 144 L 89.5 144 L 99.5 151 L 103.5 151 L 102 148.5 L 97 139.5 Q 97.8 133.2 95 130.5 L 96 128.5 L 96 126.5 L 96.5 124 Q 98.3 127.8 100 124.5 L 100.5 123 L 101 124.5 L 100 127.5 L 101 130.5 L 100 133.5 L 102.5 139 L 104 139.5 L 103.5 141 Q 106.5 140.1 105 144.5 L 113.5 153 L 121 155 Q 119.8 158 123.5 157 L 126.5 155 L 129.5 156 L 131.5 155 L 134.5 156 L 144 150.5 L 145.5 149 L 151 145 L 153 141.5 L 152.5 140 L 154 139.5 L 154 137.5 L 157 129.5 L 156 129.5 L 155.5 132 L 155 127 L 160 127 L 160 128.5 L 160 130.5 L 161 132.5 L 159 133 L 159 137.5 L 151 151.5 L 153.5 152 Q 168.9 145.4 180 134.5 L 182.5 130 L 185 129.5 Q 186 125.7 179.5 122 Q 176.2 123.1 177 120.5 L 176 114.5 L 177.5 115 L 186 120.5 L 191.5 127 L 193 127.5 L 188 131.5 L 180.5 141 L 160.5 154 L 142 159.5 L 147.5 167 L 150 167 L 151.5 169 L 158.5 174 L 160 173.5 L 159.5 175 L 170 179 Q 169 176 172 177 Q 170.7 180.7 176.5 179 L 181.5 180 L 184.5 176 L 187 174.5 L 188 164.5 L 184.5 160 L 178.5 159 Q 174 161 177.5 163 L 183 165 L 180.5 171 L 174.5 172 Q 168.8 168.8 170 160 L 172 158.5 Q 174.9 153.9 181.5 153 L 190 158.5 Q 193.9 161.1 193 168.5 L 187.5 179 Q 180.8 183.3 168.5 182 Q 148.7 177.8 138 164.5 L 134.5 160 L 130 161 L 131 172.5 L 130 184.5 L 133 190 L 137 191 Q 138.5 200 131.5 202 Q 122.2 203.3 120 197.5 L 119 190 L 121 190 Q 119.5 186.3 122.5 187 L 125 186 L 125 161.5 L 122.5 161 L 121.5 160 L 112.5 169 Q 100.7 182.2 75.5 182 L 75.5 181 L 81.5 181 L 83.5 179 L 85.5 180 Q 98.2 175.7 107 167.5 Q 106.2 164.9 109.5 166 L 114 160.5 Q 81.1 151.9 63 128.5 L 71.5 119 L 72.5 120 L 76 116.5 L 75.5 115 L 77.5 115 Q 80.1 115.8 79 112.5 L 81 112.5 L 81 111 Z M 127 190 L 124 193 L 125 195 L 127 199 L 130 199 L 130 197 Q 133 198 131 193 L 127 190 Z " /><path fill="rgb(60,154,104)" stroke="rgb(60,154,104)" stroke-width="0" opacity="0.9372549019607843" d="M 113.5 111 Q 117.5 113.5 111.5 116 L 111 114 L 114 112.5 L 113.5 111 Z " /><path fill="rgb(60,154,104)" stroke="rgb(60,154,104)" stroke-width="0" opacity="0.9372549019607843" d="M 219.5 113 L 220 145 L 218 144.5 L 218 130.5 L 219.5 113 Z " /><path fill="rgb(60,154,104)" stroke="rgb(60,154,104)" stroke-width="0" opacity="0.9372549019607843" d="M 197.5 116 L 202 117.5 L 202 120 Q 206.8 118.1 206 121.5 L 204.5 121 L 199.5 120 L 198 120.5 L 196 117.5 L 197.5 116 Z " /><path fill="rgb(60,154,104)" stroke="rgb(60,154,104)" stroke-width="0" opacity="0.9372549019607843" d="M 115 129 Q 118.7 127.5 118 130.5 L 120 130.5 Q 119.3 136.3 123.5 137 L 131.5 138 L 131.5 137 L 129 136.5 L 131.5 136 L 134 137 L 136 133.5 L 137.5 131 L 140 132 L 141 136 L 131 141 L 130.5 143 L 126.5 142 L 124.5 142 L 117 137.5 L 114 132.5 L 115 129 Z " /><path fill="rgb(60,154,104)" stroke="rgb(60,154,104)" stroke-width="0" opacity="0.9372549019607843" d="M 203.5 135 L 206 135.5 L 203 136 L 202.5 141 L 202 136.5 L 203.5 135 Z " /><path fill="rgb(60,154,104)" stroke="rgb(60,154,104)" stroke-width="0" opacity="0.9372549019607843" d="M 144.5 140 L 141 144.5 L 139.5 146 Q 134.7 150.7 124.5 150 L 114 144.5 L 115.5 145 Q 120 149.5 129.5 149 L 133.5 148 L 144.5 140 Z " /><path fill="rgb(60,154,104)" stroke="rgb(60,154,104)" stroke-width="0" opacity="0.9372549019607843" d="M 75.5 153 L 83 156 Q 86.8 158.5 86 166.5 L 82 172 Q 74.9 173.8 73 169.5 L 74 164 L 80 161.5 L 73.5 159 L 69 162.5 L 68 169.5 L 69 172 L 67 173.5 Q 70.8 175.3 67.5 177 Q 61.4 173.6 63 162.5 L 66.5 157 L 75.5 153 Z " /><path fill="rgb(60,154,104)" stroke="rgb(60,154,104)" stroke-width="0" opacity="0.9372549019607843" d="M 225 153 L 229 154.5 L 227.5 158 L 224 156.5 L 225 153 Z " /><path fill="rgb(60,154,104)" stroke="rgb(60,154,104)" stroke-width="0" opacity="0.9372549019607843" d="M 189.5 198 L 191 198.5 L 156.5 218 L 156.5 217 L 189.5 198 Z " /><path fill="rgb(60,154,104)" stroke="rgb(60,154,104)" stroke-width="0" opacity="0.9372549019607843" d="M 66.5 199 L 100 217.5 L 97.5 218 L 69.5 202 L 66.5 199 Z " /><path fill="rgb(14,25,28)" stroke="rgb(14,25,28)" stroke-width="0" opacity="0.9450980392156862" d="M 63.5 111 L 66.5 113 L 68 112.5 L 65.5 114 L 63.5 111 Z " /><path fill="rgb(14,25,28)" stroke="rgb(14,25,28)" stroke-width="0" opacity="0.9450980392156862" d="M 74.5 144 L 81 149.5 L 78.5 148 L 74.5 144 Z " /><path fill="rgb(14,25,28)" stroke="rgb(14,25,28)" stroke-width="0" opacity="0.9450980392156862" d="M 41.5 146 L 42 153.5 L 41 153.5 L 41.5 146 Z " /><path fill="rgb(14,25,28)" stroke="rgb(14,25,28)" stroke-width="0" opacity="0.9450980392156862" d="M 42.5 156 L 43 163.5 L 42 163.5 L 42.5 156 Z " /><path fill="rgb(14,25,28)" stroke="rgb(14,25,28)" stroke-width="0" opacity="0.9450980392156862" d="M 44.5 162 L 46 170.5 L 45 170.5 L 44.5 162 Z " /><path fill="rgb(14,25,28)" stroke="rgb(14,25,28)" stroke-width="0" opacity="0.9450980392156862" d="M 168.5 166 L 169 172.5 L 167 173.5 L 168.5 166 Z " /><path fill="rgb(14,25,28)" stroke="rgb(14,25,28)" stroke-width="0" opacity="0.9450980392156862" d="M 119.5 168 L 116.5 172 L 119.5 168 Z " /><path fill="rgb(14,25,28)" stroke="rgb(14,25,28)" stroke-width="0" opacity="0.9450980392156862" d="M 192.5 181 L 193 182.5 L 189.5 185 L 190.5 183 L 192.5 181 Z " /><path fill="rgb(14,25,28)" stroke="rgb(14,25,28)" stroke-width="0" opacity="0.9450980392156862" d="M 134.5 184 L 137.5 188 L 134.5 184 Z " /><path fill="rgb(14,25,28)" stroke="rgb(14,25,28)" stroke-width="0" opacity="0.9450980392156862" d="M 66.5 186 L 68 189 L 70 189.5 L 68.5 190 L 66.5 186 Z " /><path fill="rgb(14,25,28)" stroke="rgb(14,25,28)" stroke-width="0" opacity="0.9450980392156862" d="M 51.5 200 L 52 203 L 55 203.5 L 52.5 205 L 51.5 200 Z " /><path fill="rgb(14,25,28)" stroke="rgb(14,25,28)" stroke-width="0" opacity="0.9450980392156862" d="M 71.5 214 L 72 216 L 76 215.5 L 75.5 214 Q 78.5 215.5 75.5 217 L 71 215.5 L 71.5 214 Z " /><path fill="rgb(6,16,17)" stroke="rgb(6,16,17)" stroke-width="0" opacity="0.9921568627450981" d="M 124.5 22 L 132.5 23 L 141 28 L 141 30 Q 144.7 28.5 144 31.5 L 167 45 L 168.5 47 L 172 48 L 173.5 51 L 193.5 61 L 201.5 63 L 218 74.5 L 217 152.5 L 218 153.5 L 218 177.5 L 211.5 185 L 137.5 228 L 125.5 231 L 49.5 188 L 38 178.5 L 38 75.5 L 42.5 70 L 52.5 64 L 54.5 65 L 82.5 51 L 81.5 53 L 49.5 71 L 42 77.5 L 41 154.5 L 43 168.5 L 42 177.5 L 43 180 L 120.5 225 Q 124.5 228.5 133.5 227 L 213 179.5 L 214 177.5 L 214 77.5 L 134.5 28 L 124.5 27 L 86.5 50 L 88.5 47 L 93 45 L 94.5 42 L 124.5 22 Z " /><path fill="rgb(6,16,17)" stroke="rgb(6,16,17)" stroke-width="0" opacity="0.9921568627450981" d="M 22.5 85 L 23 181.5 L 24.5 185 L 25 171.5 L 26.5 168 L 28.5 171 Q 31.8 169.9 31 172.5 L 33 172.5 L 34 176 Q 37.3 174.7 36 179.5 L 35 181.5 L 44.5 189 L 96 219.5 L 93.5 221 L 80 214 Q 81.3 211 77.5 212 L 74.5 209 L 57 201 Q 58 198 55 199 L 57.5 204 L 76 215.5 L 72 216 L 71.5 213 Q 69.5 216 67.5 211 L 62 210 L 61.5 208 L 60.5 209 L 56.5 205 L 54 204.5 L 54.5 203 Q 50.3 204.1 52 200 L 47.5 200 L 45 201.5 L 53 205 L 55.5 209 L 119.5 247 Q 123.5 250 131.5 249 L 230 189.5 L 232 186.5 L 232 164.5 L 233 163.5 L 233.5 89 L 235 183.5 L 227.5 195 L 142.5 246 L 130.5 252 L 125.5 252 Q 71 224 23 189.5 L 21 185.5 L 21 164.5 L 22 163.5 L 22.5 85 Z M 47 192 L 45 194 L 46 196 L 44 197 L 46 197 L 46 199 Q 51 200 53 198 L 49 196 L 48 194 L 47 192 Z " /><path fill="rgb(6,16,17)" stroke="rgb(6,16,17)" stroke-width="0" opacity="0.9921568627450981" d="M 190.5 133 L 183.5 141 L 190.5 133 Z " /><path fill="rgb(6,16,17)" stroke="rgb(6,16,17)" stroke-width="0" opacity="0.9921568627450981" d="M 66.5 134 Q 83.1 153.2 111 160 L 109.5 163 L 106.5 161 L 104.5 161 Q 80.8 153.7 67 136.5 L 66.5 134 Z " /><path fill="rgb(6,16,17)" stroke="rgb(6,16,17)" stroke-width="0" opacity="0.9921568627450981" d="M 180.5 142 L 172.5 151 L 145.5 163 L 143.5 160 Q 166.4 155.4 180.5 142 Z " /><path fill="rgb(6,16,17)" stroke="rgb(6,16,17)" stroke-width="0" opacity="0.9921568627450981" d="M 98.5 144 L 101 148.5 L 98 149 L 98.5 144 Z " /><path fill="rgb(6,16,17)" stroke="rgb(6,16,17)" stroke-width="0" opacity="0.9921568627450981" d="M 180.5 160 Q 186.3 159.3 187 163.5 Q 188.3 172.8 182.5 175 L 168.5 175 L 168 173.5 L 169.5 166 L 174.5 173 Q 182.8 174.3 184 168.5 Q 184.7 162.7 182 161 L 180.5 160 Z " /><path fill="rgb(6,16,17)" stroke="rgb(6,16,17)" stroke-width="0" opacity="0.9921568627450981" d="M 71.5 161 L 75 161.5 Q 70.5 163 72 170.5 Q 73.9 174.1 79.5 174 L 88 168 L 87 172.5 L 88.5 175 L 80.5 177 Q 73 176.5 70 171.5 L 69 164.5 L 71.5 161 Z " /><path fill="rgb(6,16,17)" stroke="rgb(6,16,17)" stroke-width="0" opacity="0.9921568627450981" d="M 122.5 161 L 125 161.5 L 125 183.5 L 121.5 186 L 123 183.5 L 122.5 166 L 103.5 181 L 83.5 188 L 80.5 187 L 77 189.5 L 75.5 193 L 73.5 192 Q 71.8 195.8 70 192.5 L 72 192 L 70.5 189 Q 67.2 190.1 68 187.5 L 65.5 186 L 63.5 186 L 62 184.5 L 62 180.5 L 60 170.5 L 61.5 167 Q 63.1 176.9 70.5 181 Q 76.3 184.7 87.5 183 L 105.5 176 L 122.5 161 Z " /><path fill="rgb(6,16,17)" stroke="rgb(6,16,17)" stroke-width="0" opacity="0.9921568627450981" d="M 131 161 Q 136.6 160 138 164.5 L 141 170 Q 153.9 182.8 180.5 183 Q 188.1 181.2 192 175.5 L 194.5 166 L 195 175.5 L 192 183 L 186.5 186 Q 178.1 185.6 173.5 189 L 171.5 187 L 152.5 182 L 133 166 L 133 182.5 L 140 190.5 L 141.5 196 Q 144.8 197.1 144 194.5 L 145 194.5 L 145 197.5 L 136 207.5 L 136 220.5 L 134.5 222 L 132 222 L 130.5 224 L 129 224.5 L 127.5 222 L 126.5 224 L 120 220.5 L 121 217.5 L 121 207.5 L 115 196.5 L 117.5 191 Q 117.6 199.9 123.5 203 L 131.5 203 L 138 196.5 Q 138.9 187.6 133.5 185 L 131 183.5 L 131 161 Z " /><path fill="rgb(6,16,17)" stroke="rgb(6,16,17)" stroke-width="0" opacity="0.9921568627450981" d="M 229.5 169 L 231 184.5 L 229 183.5 L 226 176.5 L 229.5 169 Z " /><path fill="rgb(6,16,17)" stroke="rgb(6,16,17)" stroke-width="0" opacity="0.9921568627450981" d="M 45.5 171 L 46 173 L 49 174.5 L 47.5 174 L 46 175.5 L 47 178 Q 43.1 178.9 45.5 171 Z " /><path fill="rgb(6,16,17)" stroke="rgb(6,16,17)" stroke-width="0" opacity="0.9921568627450981" d="M 217.5 184 L 219 186.5 L 217 187 L 218 190.5 L 215 196 L 210 197.5 L 209.5 199 L 205 196 L 201.5 203 Q 198.5 202.2 200 206 L 197.5 206 L 191.5 211 L 189.5 210 L 184.5 212 L 184.5 211 L 200 201.5 Q 200.8 198.9 197.5 200 L 181 209.5 L 179.5 212 L 177.5 211 L 175 212 L 173.5 214 L 168 216 L 166.5 219 L 161 217.5 L 207.5 190 L 213.5 188 L 217.5 184 Z " /><path fill="rgb(6,16,17)" stroke="rgb(6,16,17)" stroke-width="0" opacity="0.9921568627450981" d="M 127.5 191 L 130 192 L 128.5 196 Q 124.3 197.3 126 192.5 L 127.5 191 Z " /><path fill="rgb(6,16,17)" stroke="rgb(6,16,17)" stroke-width="0" opacity="0.9921568627450981" d="M 106.5 192 L 107 213 Q 104 214.3 105 210.5 Q 101.3 209.8 102 204.5 L 106 201.5 L 105 198.5 L 106.5 192 Z " /><path fill="rgb(6,16,17)" stroke="rgb(6,16,17)" stroke-width="0" opacity="0.9921568627450981" d="M 110.5 192 L 111 193.5 L 110 203 L 112 203.5 L 111 208.5 L 113.5 212 L 118 208.5 L 116.5 219 L 109 214.5 L 109 193.5 L 110.5 192 Z " /><path fill="rgb(6,16,17)" stroke="rgb(6,16,17)" stroke-width="0" opacity="0.9921568627450981" d="M 154.5 192 L 159 192.5 L 157 195.5 L 156.5 198 Q 152.1 196.5 153 199.5 L 147 204.5 L 147 214.5 L 145.5 216 L 138 219 L 138 209.5 L 154.5 192 Z " /><path fill="rgb(6,16,17)" stroke="rgb(6,16,17)" stroke-width="0" opacity="0.9921568627450981" d="M 171.5 192 L 173 196.5 L 169.5 202 L 166.5 201 L 167 202.5 L 165 204 L 164.5 202 L 160 204 Q 161.5 207.7 158.5 207 L 154 208 L 152.5 212 Q 148.3 213.3 150 208.5 L 149 206.5 Q 153.7 199.2 164 199 Q 162.2 194.1 168.5 196 L 171.5 192 Z " /><path fill="rgb(6,16,17)" stroke="rgb(6,16,17)" stroke-width="0" opacity="0.9921568627450981" d="M 83.5 219 L 91 223.5 L 87.5 224 L 83.5 219 Z " /><path fill="rgb(6,15,16)" stroke="rgb(6,15,16)" stroke-width="0" opacity="0.8549019607843137" d="M 77.5 52 L 76.5 54 L 72.5 57 L 75.5 53 L 77.5 52 Z " /><path fill="rgb(6,15,16)" stroke="rgb(6,15,16)" stroke-width="0" opacity="0.8549019607843137" d="M 21.5 93 L 22 163.5 L 21 163.5 L 21.5 93 Z " /><path fill="rgb(6,15,16)" stroke="rgb(6,15,16)" stroke-width="0" opacity="0.8549019607843137" d="M 232.5 93 L 233 163.5 L 232 163.5 L 232.5 93 Z " /><path fill="rgb(6,15,16)" stroke="rgb(6,15,16)" stroke-width="0" opacity="0.8549019607843137" d="M 234.5 94 L 235 162.5 L 234 162.5 L 234.5 94 Z " /><path fill="rgb(6,15,16)" stroke="rgb(6,15,16)" stroke-width="0" opacity="0.8549019607843137" d="M 190.5 132 L 192 133.5 L 188 136.5 L 190.5 132 Z " /><path fill="rgb(6,15,16)" stroke="rgb(6,15,16)" stroke-width="0" opacity="0.8549019607843137" d="M 68.5 138 L 73.5 144 L 68.5 138 Z " /><path fill="rgb(6,15,16)" stroke="rgb(6,15,16)" stroke-width="0" opacity="0.8549019607843137" d="M 183.5 139 L 183 140.5 L 179.5 145 L 181 142.5 L 183.5 139 Z " /><path fill="rgb(6,15,16)" stroke="rgb(6,15,16)" stroke-width="0" opacity="0.8549019607843137" d="M 230.5 170 L 231 180.5 L 230 180.5 L 230.5 170 Z " /><path fill="rgb(6,15,16)" stroke="rgb(6,15,16)" stroke-width="0" opacity="0.8549019607843137" d="M 167.5 174 L 174 175.5 L 168.5 176 L 167.5 174 Z " /><path fill="rgb(6,15,16)" stroke="rgb(6,15,16)" stroke-width="0" opacity="0.8549019607843137" d="M 153.5 192 L 148.5 198 L 153.5 192 Z " /><path fill="rgb(6,15,16)" stroke="rgb(6,15,16)" stroke-width="0" opacity="0.8549019607843137" d="M 147.5 195 L 141.5 202 L 147.5 195 Z " />
</svg>
